{
  "accessors": [
    {
      "bufferView": 0,
      "componentType": 5125,
      "count": 1572,
      "type": "SCALAR"
    },
    {
      "bufferView": 1,
      "componentType": 5126,
      "count": 450,
      "max": [
        -0.06929076325984608,
        -0.03777705140415927,
        0.0029999999242136233
      ],
      "min": [
        -0.071796049615348,
        -0.04113608452399212,
        -0.002999999924213626
      ],
      "type": "VEC3"
    },
    {
      "bufferView": 2,
      "componentType": 5126,
      "count": 450,
      "max": [
        0.8350535314159873,
        0.6252499926808193,
        1.0
      ],
      "min": [
        -0.9999999417959344,
        -0.932760364638382,
        -1.0
      ],
      "type": "VEC3"
    },
    {
      "bufferView": 3,
      "componentType": 5126,
      "count": 450,
      "max": [
        1.0,
        0.5856698452760029
      ],
      "min": [
        0.0,
        0.0
      ],
      "type": "VEC2"
    },
    {
      "bufferView": 4,
      "componentType": 5125,
      "count": 1896,
      "type": "SCALAR"
    },
    {
      "bufferView": 5,
      "componentType": 5126,
      "count": 540,
      "max": [
        0.021706890691635977,
        0.016139158170492454,
        0.002999999924213626
      ],
      "min": [
        0.021583648507191938,
        0.0160424052433054,
        -0.002999999924213626
      ],
      "type": "VEC3"
    },
    {
      "bufferView": 6,
      "componentType": 5126,
      "count": 540,
      "max": [
        0.6737285421397768,
        0.8138071950168516,
        1.0
      ],
      "min": [
        -0.6417337610209893,
        -0.8077909940912551,
        -1.0
      ],
      "type": "VEC3"
    },
    {
      "bufferView": 7,
      "componentType": 5126,
      "count": 540,
      "max": [
        0.0988672581457049,
        1.0
      ],
      "min": [
        0.0,
        0.0
      ],
      "type": "VEC2"
    },
    {
      "bufferView": 8,
      "componentType": 5125,
      "count": 4830,
      "type": "SCALAR"
    },
    {
      "bufferView": 9,
      "componentType": 5126,
      "count": 1353,
      "max": [
        0.071796049615348,
        -0.008891248447462557,
        0.002999999924213625
      ],
      "min": [
        -0.0692907632924479,
        -0.06053819513704728,
        -0.002999999924213626
      ],
      "type": "VEC3"
    },
    {
      "bufferView": 10,
      "componentType": 5126,
      "count": 1353,
      "max": [
        0.9739089016434131,
        0.9999976167864897,
        1.0
      ],
      "min": [
        -0.963508946276327,
        -0.9999998512105843,
        -1.0
      ],
      "type": "VEC3"
    },
    {
      "bufferView": 11,
      "componentType": 5126,
      "count": 1353,
      "max": [
        1.0,
        0.9641837076396261
      ],
      "min": [
        0.0,
        0.0
      ],
      "type": "VEC2"
    },
    {
      "bufferView": 12,
      "componentType": 5125,
      "count": 16914,
      "type": "SCALAR"
    },
    {
      "bufferView": 13,
      "componentType": 5126,
      "count": 4737,
      "max": [
        0.06884797836175971,
        0.060538195137047265,
        0.002999999924213626
      ],
      "min": [
        -0.06887111159591461,
        0.0027742739736141553,
        -0.002999999924213626
      ],
      "type": "VEC3"
    },
    {
      "bufferView": 14,
      "componentType": 5126,
      "count": 4737,
      "max": [
        0.9999998198346285,
        0.9999998962214093,
        1.0
      ],
      "min": [
        -0.9999989007651972,
        -0.9999998038548148,
        -1.0
      ],
      "type": "VEC3"
    },
    {
      "bufferView": 15,
      "componentType": 5126,
      "count": 4737,
      "max": [
        1.0,
        0.9880343684132795
      ],
      "min": [
        0.0,
        0.0
      ],
      "type": "VEC2"
    }
  ],
  "asset": {
    "generator": "Adobe Illustrator",
    "version": "2.0"
  },
  "bufferViews": [
    {
      "buffer": 0,
      "byteLength": 6288,
      "target": 34963
    },
    {
      "buffer": 0,
      "byteLength": 5400,
      "byteOffset": 6288,
      "target": 34962
    },
    {
      "buffer": 0,
      "byteLength": 5400,
      "byteOffset": 11688,
      "target": 34962
    },
    {
      "buffer": 0,
      "byteLength": 3600,
      "byteOffset": 17088,
      "target": 34962
    },
    {
      "buffer": 0,
      "byteLength": 7584,
      "byteOffset": 20688,
      "target": 34963
    },
    {
      "buffer": 0,
      "byteLength": 6480,
      "byteOffset": 28272,
      "target": 34962
    },
    {
      "buffer": 0,
      "byteLength": 6480,
      "byteOffset": 34752,
      "target": 34962
    },
    {
      "buffer": 0,
      "byteLength": 4320,
      "byteOffset": 41232,
      "target": 34962
    },
    {
      "buffer": 0,
      "byteLength": 19320,
      "byteOffset": 45552,
      "target": 34963
    },
    {
      "buffer": 0,
      "byteLength": 16236,
      "byteOffset": 64872,
      "target": 34962
    },
    {
      "buffer": 0,
      "byteLength": 16236,
      "byteOffset": 81108,
      "target": 34962
    },
    {
      "buffer": 0,
      "byteLength": 10824,
      "byteOffset": 97344,
      "target": 34962
    },
    {
      "buffer": 0,
      "byteLength": 67656,
      "byteOffset": 108168,
      "target": 34963
    },
    {
      "buffer": 0,
      "byteLength": 56844,
      "byteOffset": 175824,
      "target": 34962
    },
    {
      "buffer": 0,
      "byteLength": 56844,
      "byteOffset": 232668,
      "target": 34962
    },
    {
      "buffer": 0,
      "byteLength": 37896,
      "byteOffset": 289512,
      "target": 34962
    }
  ],
  "buffers": [
    {
      "byteLength": 327408,
      "uri": "data:application/octet-stream;base64,"
    }
  ],
  "materials": [
    {
      "doubleSided": true,
      "pbrMetallicRoughness": {
        "baseColorFactor": [
          0.1132812574505806,
          0.1132812574505806,
          0.1054687574505806,
          1.0
        ],
        "metallicFactor": 0.0,
        "roughnessFactor": 0.4000000059604645
      }
    },
    {
      "doubleSided": true,
      "pbrMetallicRoughness": {
        "baseColorFactor": [
          0.1132812574505806,
          0.1132812574505806,
          0.1054687574505806,
          1.0
        ],
        "metallicFactor": 0.0,
        "roughnessFactor": 0.4000000059604645
      }
    },
    {
      "doubleSided": true,
      "pbrMetallicRoughness": {
        "baseColorFactor": [
          0.1132812574505806,
          0.1132812574505806,
          0.1054687574505806,
          1.0
        ],
        "metallicFactor": 0.0,
        "roughnessFactor": 0.4000000059604645
      }
    },
    {
      "doubleSided": true,
      "pbrMetallicRoughness": {
        "baseColorFactor": [
          0.1132812574505806,
          0.1132812574505806,
          0.1054687574505806,
          1.0
        ],
        "metallicFactor": 0.0,
        "roughnessFactor": 0.4000000059604645
      }
    }
  ],
  "meshes": [
    {
      "primitives": [
        {
          "attributes": {
            "NORMAL": 2,
            "POSITION": 1,
            "TEXCOORD_0": 3
          },
          "indices": 0,
          "material": 0,
          "mode": 4
        }
      ]
    },
    {
      "primitives": [
        {
          "attributes": {
            "NORMAL": 6,
            "POSITION": 5,
            "TEXCOORD_0": 7
          },
          "indices": 4,
          "material": 1,
          "mode": 4
        }
      ]
    },
    {
      "primitives": [
        {
          "attributes": {
            "NORMAL": 10,
            "POSITION": 9,
            "TEXCOORD_0": 11
          },
          "indices": 8,
          "material": 2,
          "mode": 4
        }
      ]
    },
    {
      "primitives": [
        {
          "attributes": {
            "NORMAL": 14,
            "POSITION": 13,
            "TEXCOORD_0": 15
          },
          "indices": 12,
          "material": 3,
          "mode": 4
        }
      ]
    }
  ],
  "nodes": [
    {
      "mesh": 0
    },
    {
      "mesh": 1
    },
    {
      "mesh": 2
    },
    {
      "mesh": 3
    }
  ],
  "scenes": [
    {
      "nodes": [
        0,
        1,
        2,
        3
      ]
    }
  ]
}
